<svg fill="#FFFFFF" xmlns="http://www.w3.org/2000/svg"  viewBox="0 0 64 64" width="48px" height="48px"><path d="M 22 11 C 19.053 11 16.353078 12.510406 14.955078 14.941406 C 14.411078 15.886406 13.768922 17.428172 13.419922 18.451172 C 13.099922 19.327172 8.2110781 30.265125 5.2050781 36.953125 C 5.2050781 36.953125 5.2282763 36.943464 5.2285156 36.943359 C 4.4491097 38.482721 4 40.191614 4 42 C 4 48.617 9.832 54 17 54 C 24.168 54 30 48.617 30 42 L 30 38.326172 C 30.537375 38.158985 31.229861 38 32 38 C 32.772827 38 33.46335 38.159026 34 38.326172 L 34 42 C 34 48.617 39.832 54 47 54 C 54.168 54 60 48.617 60 42 C 60 40.191614 59.55089 38.482721 58.771484 36.943359 C 58.771724 36.943464 58.794922 36.953125 58.794922 36.953125 C 55.788922 30.264125 50.900937 19.326891 50.585938 18.462891 C 50.231938 17.427891 49.588922 15.886406 49.044922 14.941406 C 47.646922 12.510406 44.947 11 42 11 C 37.695193 11 34.182706 14.206392 34.015625 18.205078 C 33.403696 18.084479 32.727927 18 32 18 C 31.272073 18 30.596285 18.084479 29.984375 18.205078 C 29.817294 14.206392 26.304807 11 22 11 z M 32 22 C 32.772827 22 33.46335 22.159026 34 22.326172 L 34 26.201172 C 33.392283 26.082347 32.721449 26 32 26 C 31.278551 26 30.607698 26.082347 30 26.201172 L 30 22.326172 C 30.537375 22.158985 31.229861 22 32 22 z M 17 34 C 21.963 34 26 37.589 26 42 C 26 46.411 21.963 50 17 50 C 12.037 50 8 46.411 8 42 C 8 37.589 12.037 34 17 34 z M 47 34 C 51.963 34 56 37.589 56 42 C 56 46.411 51.963 50 47 50 C 42.037 50 38 46.411 38 42 C 38 37.589 42.037 34 47 34 z"/></svg>